<svg xmlns="http://www.w3.org/2000/svg" viewBox="0 0 520 520" fill="none">
  <defs>
    <linearGradient id="g1" x1="0" y1="0" x2="1" y2="1"><stop offset="0" stop-color="#a5b4fc"/><stop offset="1" stop-color="#f0abfc"/></linearGradient>
    <linearGradient id="g2" x1="0" y1="0" x2="1" y2="0"><stop offset="0" stop-color="#22d3ee"/><stop offset="1" stop-color="#6366f1"/></linearGradient>
  </defs>
  <circle cx="260" cy="260" r="220" fill="url(#g1)" opacity=".35"/>
  <rect x="120" y="120" width="280" height="190" rx="22" fill="#fff" opacity=".92"/>
  <rect x="120" y="120" width="280" height="42" rx="22" fill="url(#g2)"/>
  <circle cx="148" cy="141" r="6" fill="#fff"/><circle cx="168" cy="141" r="6" fill="#fff" opacity=".7"/><circle cx="188" cy="141" r="6" fill="#fff" opacity=".4"/>
  <rect x="146" y="188" width="150" height="12" rx="6" fill="#c7d2fe"/>
  <rect x="146" y="214" width="228" height="10" rx="5" fill="#e2e8f0"/><rect x="146" y="234" width="190" height="10" rx="5" fill="#e2e8f0"/>
  <rect x="146" y="264" width="84" height="26" rx="13" fill="#10b981"/><rect x="242" y="264" width="84" height="26" rx="13" fill="#f59e0b"/>
  <g transform="translate(375 300)"><circle r="46" fill="#4f46e5"/><path d="M-18 4 L-6 17 L20 -12" stroke="#fff" stroke-width="9" stroke-linecap="round" stroke-linejoin="round"/></g>
  <g transform="translate(140 345)"><rect width="140" height="64" rx="16" fill="#fff" opacity=".95"/><circle cx="32" cy="32" r="16" fill="#fde68a"/><rect x="58" y="22" width="64" height="9" rx="4.5" fill="#cbd5e1"/><rect x="58" y="38" width="44" height="9" rx="4.5" fill="#e2e8f0"/></g>
  <g fill="#fff" opacity=".8"><circle cx="90" cy="90" r="6"/><circle cx="450" cy="170" r="9"/><circle cx="430" cy="420" r="6"/><circle cx="70" cy="300" r="8"/></g>
</svg>
